

==========================================
	Pre-Check Configurations
==========================================

File to be converted
--------------------
		Initializing File <strong>1613839314c46f3.mp4</strong> and pre checking configurations...

System hardware Information
---------------------------
		Unable log System hardware information, plaese install "lshw" 

Temporary Uploading
-------------------
		File Uploaded to Temp directory successfully and video conversion file is being executed !

Video Conversion File Execution
-------------------------------
		Video Converson File executed successfully with Target File > !1613839314c46f3.mp4


==========================================
	Starting Conversion Log
==========================================

Getting Arguments
-----------------
		Filename : 1613839314c46f3.mp4
File directory : 2021/02/20
Log file : /var/www/vhosts/centx.app/httpdocs/files/logs/2021/02/20/1613839314c46f3.log


Conversion queue
----------------
		Getting the file information from the queue for conversion

Conversion queue
----------------
		File has been moved from Temporary dir to Conversion Queue/var/www/vhosts/centx.app/httpdocs/files/temp/1613839314c46f3.olo Orig_ /var/www/vhosts/centx.app/httpdocs/files/conversion_queue/1613839314c46f3.mp4

Parsing FFmpeg Configurations
-----------------------------
		<strong>use_video_rate</strong> : 1
<strong>use_video_bit_rate</strong> : 1
<strong>use_audio_rate</strong> : 1
<strong>use_audio_bit_rate</strong> : 1
<strong>use_audio_codec</strong> : 1
<strong>use_video_codec</strong> : 1
<strong>format</strong> : mp4
<strong>video_codec</strong> : libx264
<strong>audio_codec</strong> : libfdk_aac
<strong>audio_rate</strong> : 22050
<strong>audio_bitrate</strong> : 128000
<strong>video_rate</strong> : 
<strong>video_bitrate</strong> : 
<strong>video_bitrate_hd</strong> : 
<strong>normal_res</strong> : 
<strong>high_res</strong> : 
<strong>max_video_duration</strong> : 320
<strong>resize</strong> : max
<strong>outputPath</strong> : 2021/02/20/
<strong>cb_combo_res</strong> : 
<strong>gen_240</strong> : yes
<strong>gen_360</strong> : yes
<strong>gen_480</strong> : yes
<strong>gen_720</strong> : yes
<strong>gen_1080</strong> : yes


Starting Conversion
-------------------
		Started on 2021-02-20 16:41:59 - 2021 Feb 20

Checking File...
File : /var/www/vhosts/centx.app/httpdocs/files/conversion_queue/1613839314c46f3.mp4

File Exists____video
--------------------
		Yes

Preparing file...
-----------------
		<strong>format</strong> : mov,mp4,m4a,3gp,3g2,mj2
<strong>duration</strong> : 116.03
<strong>size</strong> : 2798490
<strong>bitrate</strong> : 192942
<strong>video_width</strong> : 1278
<strong>video_height</strong> : 718
<strong>video_wh_ratio</strong> : 1.7799442896936
<strong>video_codec</strong> : h264
<strong>video_rate</strong> : 30
<strong>video_bitrate</strong> : 191919
<strong>video_color</strong> : N/A
<strong>audio_codec</strong> : 
<strong>audio_bitrate</strong> : 0
<strong>audio_rate</strong> : 0
<strong>audio_channels</strong> : 0
<strong>path</strong> : /var/www/vhosts/centx.app/httpdocs/files/conversion_queue/1613839314c46f3.mp4
<strong>rotation</strong> : 0


Thumbs Generation ____
----------------------
		Starting

Thumbs Files ____ /var/www/vhosts/centx.app/httpdocs/files/conversion_queue/1613839314c46f3.mp4 Resolutions: 
-------------------------------------------------------------------------------------------------------------
		/var/www/vhosts/centx.app/httpdocs/files/conversion_queue/1613839314c46f3.mp4

==========================================
	Video Conversionvideo
==========================================

Getting Video Details Array: 
-----------------------------
		<strong>size</strong> : 2798490
<strong>duration</strong> : 116
<strong>bitrate</strong> : 188
<strong>format</strong> : mov,mp4,m4a,3gp,3g2,mj2
<strong>video_width</strong> : 1278
<strong>video_height</strong> : 718
<strong>video_wh_ratio</strong> : 1.7799442896936
<strong>video_codec</strong> : h264
<strong>audio_codec</strong> : 
<strong>audio_rate</strong> : 
<strong>audio_channels</strong> : 


Getting out : 
--------------
		ffmpeg version 3.4.8 Copyright (c) 2000-2020 the FFmpeg developers
  built with gcc 4.8.5 (GCC) 20150623 (Red Hat 4.8.5-39)
  configuration: --prefix=/usr --bindir=/usr/bin --datadir=/usr/share/ffmpeg --docdir=/usr/share/doc/ffmpeg --incdir=/usr/include/ffmpeg --libdir=/usr/lib64 --mandir=/usr/share/man --arch=x86_64 --optflags='-O2 -g -pipe -Wall -Wp,-D_FORTIFY_SOURCE=2 -fexceptions -fstack-protector-strong --param=ssp-buffer-size=4 -grecord-gcc-switches -m64 -mtune=generic' --extra-ldflags='-Wl,-z,relro ' --extra-cflags=' ' --enable-libopencore-amrnb --enable-libopencore-amrwb --enable-libvo-amrwbenc --enable-version3 --enable-bzlib --disable-crystalhd --enable-fontconfig --enable-gcrypt --enable-gnutls --enable-ladspa --enable-libass --enable-libbluray --enable-libcdio --enable-libdrm --enable-indev=jack --enable-libfreetype --enable-libfribidi --enable-libgsm --enable-libmp3lame --enable-nvenc --enable-openal --enable-opencl --enable-opengl --enable-libopenjpeg --enable-libopus --disable-encoder=libopus --enable-libpulse --enable-librsvg --enable-libsoxr --enable-libspeex --enable-libtheora --enable-libvorbis --enable-libv4l2 --enable-libvidstab --enable-libvpx --enable-libx264 --enable-libx265 --enable-libxvid --enable-libzvbi --enable-avfilter --enable-avresample --enable-libmodplug --enable-postproc --enable-pthreads --disable-static --enable-shared --enable-gpl --disable-debug --disable-stripping --shlibdir=/usr/lib64 --enable-libmfx --enable-runtime-cpudetect
  libavutil      55. 78.100 / 55. 78.100
  libavcodec     57.107.100 / 57.107.100
  libavformat    57. 83.100 / 57. 83.100
  libavdevice    57. 10.100 / 57. 10.100
  libavfilter     6.107.100 /  6.107.100
  libavresample   3.  7.  0 /  3.  7.  0
  libswscale      4.  8.100 /  4.  8.100
  libswresample   2.  9.100 /  2.  9.100
  libpostproc    54.  7.100 / 54.  7.100
Input #0, mov,mp4,m4a,3gp,3g2,mj2, from '/var/www/vhosts/centx.app/httpdocs/files/conversion_queue/1613839314c46f3.mp4':
  Metadata:
    major_brand     : isom
    minor_version   : 512
    compatible_brands: isomiso2avc1mp41
    encoder         : Lavf58.64.100
  Duration: 00:01:56.03, start: 0.000000, bitrate: 192 kb/s
    Stream #0:0(eng): Video: h264 (Constrained Baseline) (avc1 / 0x31637661), yuv420p, 1278x718 [SAR 1:1 DAR 639:359], 191 kb/s, 30 fps, 30 tbr, 15360 tbn, 60 tbc (default)
    Metadata:
      handler_name    : VideoHandler
Output #0, null, to '/dev/null':
  Metadata:
    major_brand     : isom
    minor_version   : 512
    compatible_brands: isomiso2avc1mp41
    encoder         : Lavf57.83.100
    Stream #0:0(eng): Video: h264 (Constrained Baseline) (avc1 / 0x31637661), yuv420p, 1278x718 [SAR 1:1 DAR 639:359], q=2-31, 191 kb/s, 30 fps, 30 tbr, 15360 tbn, 15360 tbc (default)
    Metadata:
      handler_name    : VideoHandler
Stream mapping:
  Stream #0:0 -> #0:0 (copy)
Press [q] to stop, [?] for help
frame= 3481 fps=0.0 q=-1.0 Lsize=N/A time=00:01:56.00 bitrate=N/A speed=7.79e+03x    
video:2718kB audio:0kB subtitle:0kB other streams:0kB global headers:0kB muxing overhead: unknown


Low SD second Execute Full Command : 
-------------------------------------
		
======Converting Video=========


=======Low Resolution Conversion=======


 Sarting : Generating Low resolution video @ 2021-02-20 16:42:01 

 Converting Video SD File  

 Command : /bin/ffmpeg -i /var/www/vhosts/centx.app/httpdocs/files/conversion_queue/1613839314c46f3.mp4 -vcodec libx264 -acodec libfdk_aac -s 1278x718 -preset medium -f mp4 -b:a 128000 -minrate 128000 -maxrate 128000 -ar 22050 /var/www/vhosts/centx.app/httpdocs/files/videos/2021/02/20//1613839314c46f3-sd.mp4 

 ffmpeg output : ffmpeg version 3.4.8 Copyright (c) 2000-2020 the FFmpeg developers
  built with gcc 4.8.5 (GCC) 20150623 (Red Hat 4.8.5-39)
  configuration: --prefix=/usr --bindir=/usr/bin --datadir=/usr/share/ffmpeg --docdir=/usr/share/doc/ffmpeg --incdir=/usr/include/ffmpeg --libdir=/usr/lib64 --mandir=/usr/share/man --arch=x86_64 --optflags='-O2 -g -pipe -Wall -Wp,-D_FORTIFY_SOURCE=2 -fexceptions -fstack-protector-strong --param=ssp-buffer-size=4 -grecord-gcc-switches -m64 -mtune=generic' --extra-ldflags='-Wl,-z,relro ' --extra-cflags=' ' --enable-libopencore-amrnb --enable-libopencore-amrwb --enable-libvo-amrwbenc --enable-version3 --enable-bzlib --disable-crystalhd --enable-fontconfig --enable-gcrypt --enable-gnutls --enable-ladspa --enable-libass --enable-libbluray --enable-libcdio --enable-libdrm --enable-indev=jack --enable-libfreetype --enable-libfribidi --enable-libgsm --enable-libmp3lame --enable-nvenc --enable-openal --enable-opencl --enable-opengl --enable-libopenjpeg --enable-libopus --disable-encoder=libopus --enable-libpulse --enable-librsvg --enable-libsoxr --enable-libspeex --enable-libtheora --enable-libvorbis --enable-libv4l2 --enable-libvidstab --enable-libvpx --enable-libx264 --enable-libx265 --enable-libxvid --enable-libzvbi --enable-avfilter --enable-avresample --enable-libmodplug --enable-postproc --enable-pthreads --disable-static --enable-shared --enable-gpl --disable-debug --disable-stripping --shlibdir=/usr/lib64 --enable-libmfx --enable-runtime-cpudetect
  libavutil      55. 78.100 / 55. 78.100
  libavcodec     57.107.100 / 57.107.100
  libavformat    57. 83.100 / 57. 83.100
  libavdevice    57. 10.100 / 57. 10.100
  libavfilter     6.107.100 /  6.107.100
  libavresample   3.  7.  0 /  3.  7.  0
  libswscale      4.  8.100 /  4.  8.100
  libswresample   2.  9.100 /  2.  9.100
  libpostproc    54.  7.100 / 54.  7.100
Input #0, mov,mp4,m4a,3gp,3g2,mj2, from '/var/www/vhosts/centx.app/httpdocs/files/conversion_queue/1613839314c46f3.mp4':
  Metadata:
    major_brand     : isom
    minor_version   : 512
    compatible_brands: isomiso2avc1mp41
    encoder         : Lavf58.64.100
  Duration: 00:01:56.03, start: 0.000000, bitrate: 192 kb/s
    Stream #0:0(eng): Video: h264 (Constrained Baseline) (avc1 / 0x31637661), yuv420p, 1278x718 [SAR 1:1 DAR 639:359], 191 kb/s, 30 fps, 30 tbr, 15360 tbn, 60 tbc (default)
    Metadata:
      handler_name    : VideoHandler
Codec AVOption b (set bitrate (in bits/s)) specified for output file #0 (/var/www/vhosts/centx.app/httpdocs/files/videos/2021/02/20//1613839314c46f3-sd.mp4) has not been used for any stream. The most likely reason is either wrong type (e.g. a video option with no video streams) or that it is a private option of some encoder which was not actually used for any stream.
Stream mapping:
  Stream #0:0 -> #0:0 (h264 (native) -> h264 (libx264))
Press [q] to stop, [?] for help
[libx264 @ 0xc16880] VBV maxrate specified, but no bufsize, ignored
[libx264 @ 0xc16880] using SAR=1/1
[libx264 @ 0xc16880] using cpu capabilities: MMX2 SSE2Fast SSSE3 SSE4.2 AVX FMA3 AVX2 LZCNT BMI2
[libx264 @ 0xc16880] profile High, level 3.1
[libx264 @ 0xc16880] 264 - core 148 r2795 aaa9aa8 - H.264/MPEG-4 AVC codec - Copyleft 2003-2017 - http://www.videolan.org/x264.html - options: cabac=1 ref=3 deblock=1:0:0 analyse=0x3:0x113 me=hex subme=7 psy=1 psy_rd=1.00:0.00 mixed_ref=1 me_range=16 chroma_me=1 trellis=1 8x8dct=1 cqm=0 deadzone=21,11 fast_pskip=1 chroma_qp_offset=-2 threads=3 lookahead_threads=1 sliced_threads=0 nr=0 decimate=1 interlaced=0 bluray_compat=0 constrained_intra=0 bframes=3 b_pyramid=2 b_adapt=1 b_bias=0 direct=1 weightb=1 open_gop=0 weightp=2 keyint=250 keyint_min=25 scenecut=40 intra_refresh=0 rc_lookahead=40 rc=crf mbtree=1 crf=23.0 qcomp=0.60 qpmin=0 qpmax=69 qpstep=4 ip_ratio=1.40 aq=1:1.00
Output #0, mp4, to '/var/www/vhosts/centx.app/httpdocs/files/videos/2021/02/20//1613839314c46f3-sd.mp4':
  Metadata:
    major_brand     : isom
    minor_version   : 512
    compatible_brands: isomiso2avc1mp41
    encoder         : Lavf57.83.100
    Stream #0:0(eng): Video: h264 (libx264) (avc1 / 0x31637661), yuv420p, 1278x718 [SAR 1:1 DAR 639:359], q=-1--1, 30 fps, 15360 tbn, 30 tbc (default)
    Metadata:
      handler_name    : VideoHandler
      encoder         : Lavc57.107.100 libx264
    Side data:
      cpb: bitrate max/min/avg: 128000/0/0 buffer size: 0 vbv_delay: -1
frame=   54 fps=0.0 q=29.0 size=       0kB time=00:00:00.13 bitrate=   2.9kbits/s speed=0.256x    frame=   92 fps= 89 q=29.0 size=       0kB time=00:00:01.40 bitrate=   0.3kbits/s speed=1.36x    frame=  146 fps= 95 q=29.0 size=       0kB time=00:00:03.20 bitrate=   0.1kbits/s speed=2.09x    frame=  190 fps= 93 q=29.0 size=       0kB time=00:00:04.66 bitrate=   0.1kbits/s speed=2.29x    frame=  235 fps= 92 q=29.0 size=       0kB time=00:00:06.16 bitrate=   0.1kbits/s speed=2.41x    frame=  284 fps= 92 q=29.0 size=       0kB time=00:00:07.80 bitrate=   0.0kbits/s speed=2.53x    frame=  335 fps= 93 q=29.0 size=       0kB time=00:00:09.50 bitrate=   0.0kbits/s speed=2.64x    frame=  381 fps= 93 q=29.0 size=       0kB time=00:00:11.03 bitrate=   0.0kbits/s speed=2.69x    frame=  433 fps= 94 q=29.0 size=       0kB time=00:00:12.76 bitrate=   0.0kbits/s speed=2.77x    frame=  486 fps= 95 q=29.0 size=       0kB time=00:00:14.53 bitrate=   0.0kbits/s speed=2.84x    frame=  545 fps= 97 q=29.0 size=       0kB time=00:00:16.50 bitrate=   0.0kbits/s speed=2.93x    frame=  601 fps= 98 q=29.0 size=       0kB time=00:00:18.36 bitrate=   0.0kbits/s speed=   3x    frame=  653 fps= 98 q=29.0 size=       0kB time=00:00:20.10 bitrate=   0.0kbits/s speed=3.03x    frame=  700 fps= 98 q=29.0 size=       0kB time=00:00:21.66 bitrate=   0.0kbits/s speed=3.03x    frame=  748 fps= 98 q=29.0 size=       0kB time=00:00:23.26 bitrate=   0.0kbits/s speed=3.04x    frame=  796 fps= 98 q=29.0 size=       0kB time=00:00:24.86 bitrate=   0.0kbits/s speed=3.05x    frame=  846 fps= 98 q=29.0 size=       0kB time=00:00:26.53 bitrate=   0.0kbits/s speed=3.06x    frame=  895 fps= 98 q=29.0 size=       0kB time=00:00:28.16 bitrate=   0.0kbits/s speed=3.07x    frame=  942 fps= 97 q=29.0 size=       0kB time=00:00:29.73 bitrate=   0.0kbits/s speed=3.07x    frame=  991 fps= 97 q=29.0 size=     256kB time=00:00:31.36 bitrate=  66.9kbits/s speed=3.08x    frame= 1035 fps= 97 q=29.0 size=     256kB time=00:00:32.83 bitrate=  63.9kbits/s speed=3.07x    frame= 1082 fps= 97 q=29.0 size=     256kB time=00:00:34.40 bitrate=  61.0kbits/s speed=3.07x    frame= 1126 fps= 96 q=29.0 size=     256kB time=00:00:35.86 bitrate=  58.5kbits/s speed=3.06x    frame= 1171 fps= 96 q=29.0 size=     256kB time=00:00:37.36 bitrate=  56.1kbits/s speed=3.06x    frame= 1218 fps= 96 q=29.0 size=     256kB time=00:00:38.93 bitrate=  53.9kbits/s speed=3.06x    frame= 1263 fps= 95 q=29.0 size=     256kB time=00:00:40.43 bitrate=  51.9kbits/s speed=3.05x    frame= 1312 fps= 95 q=29.0 size=     256kB time=00:00:42.06 bitrate=  49.9kbits/s speed=3.06x    frame= 1360 fps= 95 q=29.0 size=     256kB time=00:00:43.66 bitrate=  48.0kbits/s speed=3.07x    frame= 1408 fps= 96 q=29.0 size=     256kB time=00:00:45.26 bitrate=  46.3kbits/s speed=3.07x    frame= 1460 fps= 96 q=29.0 size=     256kB time=00:00:47.00 bitrate=  44.6kbits/s speed=3.08x    frame= 1501 fps= 95 q=29.0 size=     256kB time=00:00:48.36 bitrate=  43.4kbits/s speed=3.07x    frame= 1542 fps= 95 q=29.0 size=     256kB time=00:00:49.73 bitrate=  42.2kbits/s speed=3.06x    frame= 1582 fps= 94 q=29.0 size=     256kB time=00:00:51.06 bitrate=  41.1kbits/s speed=3.04x    frame= 1624 fps= 94 q=26.0 size=     256kB time=00:00:52.46 bitrate=  40.0kbits/s speed=3.03x    frame= 1669 fps= 94 q=29.0 size=     512kB time=00:00:53.96 bitrate=  77.7kbits/s speed=3.03x    frame= 1717 fps= 94 q=29.0 size=     512kB time=00:00:55.56 bitrate=  75.5kbits/s speed=3.04x    frame= 1765 fps= 94 q=29.0 size=     512kB time=00:00:57.16 bitrate=  73.4kbits/s speed=3.04x    frame= 1813 fps= 94 q=29.0 size=     512kB time=00:00:58.76 bitrate=  71.4kbits/s speed=3.04x    frame= 1860 fps= 94 q=29.0 size=     512kB time=00:01:00.33 bitrate=  69.5kbits/s speed=3.04x    frame= 1893 fps= 93 q=29.0 size=     512kB time=00:01:01.43 bitrate=  68.3kbits/s speed=3.02x    frame= 1933 fps= 93 q=29.0 size=     512kB time=00:01:02.76 bitrate=  66.8kbits/s speed=3.02x    frame= 1974 fps= 92 q=29.0 size=     512kB time=00:01:04.13 bitrate=  65.4kbits/s speed=3.01x    frame= 2015 fps= 92 q=29.0 size=     512kB time=00:01:05.50 bitrate=  64.0kbits/s speed=   3x    frame= 2055 fps= 92 q=29.0 size=     512kB time=00:01:06.83 bitrate=  62.8kbits/s speed=2.99x    frame= 2095 fps= 92 q=29.0 size=     512kB time=00:01:08.16 bitrate=  61.5kbits/s speed=2.98x    frame= 2134 fps= 91 q=29.0 size=     512kB time=00:01:09.46 bitrate=  60.4kbits/s speed=2.97x    frame= 2169 fps= 91 q=29.0 size=     512kB time=00:01:10.63 bitrate=  59.4kbits/s speed=2.95x    frame= 2213 fps= 91 q=29.0 size=     768kB time=00:01:12.10 bitrate=  87.3kbits/s speed=2.95x    frame= 2254 fps= 90 q=29.0 size=     768kB time=00:01:13.46 bitrate=  85.6kbits/s speed=2.95x    frame= 2297 fps= 90 q=29.0 size=     768kB time=00:01:14.90 bitrate=  84.0kbits/s speed=2.94x    frame= 2338 fps= 90 q=29.0 size=     768kB time=00:01:16.26 bitrate=  82.5kbits/s speed=2.94x    frame= 2377 fps= 90 q=29.0 size=     768kB time=00:01:17.56 bitrate=  81.1kbits/s speed=2.93x    frame= 2425 fps= 90 q=29.0 size=     768kB time=00:01:19.16 bitrate=  79.5kbits/s speed=2.94x    frame= 2471 fps= 90 q=29.0 size=     768kB time=00:01:20.70 bitrate=  78.0kbits/s speed=2.94x    frame= 2514 fps= 90 q=29.0 size=     768kB time=00:01:22.13 bitrate=  76.6kbits/s speed=2.93x    frame= 2558 fps= 90 q=29.0 size=     768kB time=00:01:23.60 bitrate=  75.3kbits/s speed=2.93x    frame= 2602 fps= 90 q=29.0 size=     768kB time=00:01:25.06 bitrate=  74.0kbits/s speed=2.93x    frame= 2646 fps= 90 q=29.0 size=     768kB time=00:01:26.53 bitrate=  72.7kbits/s speed=2.93x    frame= 2690 fps= 90 q=29.0 size=     768kB time=00:01:28.00 bitrate=  71.5kbits/s speed=2.93x    frame= 2731 fps= 89 q=29.0 size=     768kB time=00:01:29.36 bitrate=  70.4kbits/s speed=2.92x    frame= 2774 fps= 89 q=29.0 size=     768kB time=00:01:30.80 bitrate=  69.3kbits/s speed=2.92x    frame= 2819 fps= 89 q=29.0 size=     768kB time=00:01:32.30 bitrate=  68.2kbits/s speed=2.92x    frame= 2862 fps= 89 q=29.0 size=     768kB time=00:01:33.73 bitrate=  67.1kbits/s speed=2.92x    frame= 2907 fps= 89 q=29.0 size=     768kB time=00:01:35.23 bitrate=  66.1kbits/s speed=2.92x    frame= 2952 fps= 89 q=29.0 size=     768kB time=00:01:36.73 bitrate=  65.0kbits/s speed=2.92x    frame= 2997 fps= 89 q=26.0 size=    1024kB time=00:01:38.23 bitrate=  85.4kbits/s speed=2.92x    frame= 3047 fps= 89 q=29.0 size=    1024kB time=00:01:39.90 bitrate=  84.0kbits/s speed=2.93x    frame= 3099 fps= 89 q=29.0 size=    1024kB time=00:01:41.63 bitrate=  82.5kbits/s speed=2.93x    frame= 3152 fps= 90 q=29.0 size=    1024kB time=00:01:43.40 bitrate=  81.1kbits/s speed=2.94x    frame= 3202 fps= 90 q=29.0 size=    1024kB time=00:01:45.06 bitrate=  79.8kbits/s speed=2.95x    frame= 3246 fps= 90 q=29.0 size=    1024kB time=00:01:46.53 bitrate=  78.7kbits/s speed=2.95x    frame= 3288 fps= 90 q=29.0 size=    1024kB time=00:01:47.93 bitrate=  77.7kbits/s speed=2.94x    frame= 3330 fps= 90 q=29.0 size=    1024kB time=00:01:49.33 bitrate=  76.7kbits/s speed=2.94x    frame= 3370 fps= 89 q=29.0 size=    1024kB time=00:01:50.66 bitrate=  75.8kbits/s speed=2.94x    frame= 3410 fps= 89 q=29.0 size=    1024kB time=00:01:52.00 bitrate=  74.9kbits/s speed=2.93x    frame= 3451 fps= 89 q=29.0 size=    1024kB time=00:01:53.36 bitrate=  74.0kbits/s speed=2.93x    frame= 3481 fps= 88 q=-1.0 Lsize=    1267kB time=00:01:55.93 bitrate=  89.5kbits/s speed=2.93x    
video:1225kB audio:0kB subtitle:0kB other streams:0kB global headers:0kB muxing overhead: 3.369144%
[libx264 @ 0xc16880] frame I:20    Avg QP:11.84  size: 32672
[libx264 @ 0xc16880] frame P:917   Avg QP:13.64  size:   460
[libx264 @ 0xc16880] frame B:2544  Avg QP:15.31  size:    70
[libx264 @ 0xc16880] consecutive B-frames:  2.0%  1.3%  1.5% 95.3%
[libx264 @ 0xc16880] mb I  I16..4: 62.1% 22.2% 15.7%
[libx264 @ 0xc16880] mb P  I16..4:  0.2%  0.2%  0.1%  P16..4:  0.7%  0.0%  0.1%  0.0%  0.0%    skip:98.7%
[libx264 @ 0xc16880] mb B  I16..4:  0.0%  0.0%  0.0%  B16..8:  0.9%  0.0%  0.0%  direct: 0.0%  skip:99.0%  L0:65.3% L1:34.6% BI: 0.2%
[libx264 @ 0xc16880] 8x8 transform intra:24.4% inter:43.9%
[libx264 @ 0xc16880] coded y,uvDC,uvAC intra: 14.2% 14.2% 12.5% inter: 0.1% 0.1% 0.1%
[libx264 @ 0xc16880] i16 v,h,dc,p: 83% 13%  4%  0%
[libx264 @ 0xc16880] i8 v,h,dc,ddl,ddr,vr,hd,vl,hu: 44% 19% 35%  0%  0%  0%  0%  0%  1%
[libx264 @ 0xc16880] i4 v,h,dc,ddl,ddr,vr,hd,vl,hu: 36% 26% 15%  3%  4%  4%  5%  3%  4%
[libx264 @ 0xc16880] i8c dc,h,v,p: 85%  8%  6%  1%
[libx264 @ 0xc16880] Weighted P-Frames: Y:0.0% UV:0.0%
[libx264 @ 0xc16880] ref P L0: 88.0%  3.1%  7.3%  1.5%
[libx264 @ 0xc16880] ref B L0: 40.7% 58.6%  0.6%
[libx264 @ 0xc16880] ref B L1: 99.4%  0.6%
[libx264 @ 0xc16880] kb/s:86.46
 


Conversion Ouput
----------------
		
======Converting Video=========


=======Low Resolution Conversion=======


 Sarting : Generating Low resolution video @ 2021-02-20 16:42:01 

 Converting Video SD File  

 Command : /bin/ffmpeg -i /var/www/vhosts/centx.app/httpdocs/files/conversion_queue/1613839314c46f3.mp4 -vcodec libx264 -acodec libfdk_aac -s 1278x718 -preset medium -f mp4 -b:a 128000 -minrate 128000 -maxrate 128000 -ar 22050 /var/www/vhosts/centx.app/httpdocs/files/videos/2021/02/20//1613839314c46f3-sd.mp4 

 ffmpeg output : ffmpeg version 3.4.8 Copyright (c) 2000-2020 the FFmpeg developers
  built with gcc 4.8.5 (GCC) 20150623 (Red Hat 4.8.5-39)
  configuration: --prefix=/usr --bindir=/usr/bin --datadir=/usr/share/ffmpeg --docdir=/usr/share/doc/ffmpeg --incdir=/usr/include/ffmpeg --libdir=/usr/lib64 --mandir=/usr/share/man --arch=x86_64 --optflags='-O2 -g -pipe -Wall -Wp,-D_FORTIFY_SOURCE=2 -fexceptions -fstack-protector-strong --param=ssp-buffer-size=4 -grecord-gcc-switches -m64 -mtune=generic' --extra-ldflags='-Wl,-z,relro ' --extra-cflags=' ' --enable-libopencore-amrnb --enable-libopencore-amrwb --enable-libvo-amrwbenc --enable-version3 --enable-bzlib --disable-crystalhd --enable-fontconfig --enable-gcrypt --enable-gnutls --enable-ladspa --enable-libass --enable-libbluray --enable-libcdio --enable-libdrm --enable-indev=jack --enable-libfreetype --enable-libfribidi --enable-libgsm --enable-libmp3lame --enable-nvenc --enable-openal --enable-opencl --enable-opengl --enable-libopenjpeg --enable-libopus --disable-encoder=libopus --enable-libpulse --enable-librsvg --enable-libsoxr --enable-libspeex --enable-libtheora --enable-libvorbis --enable-libv4l2 --enable-libvidstab --enable-libvpx --enable-libx264 --enable-libx265 --enable-libxvid --enable-libzvbi --enable-avfilter --enable-avresample --enable-libmodplug --enable-postproc --enable-pthreads --disable-static --enable-shared --enable-gpl --disable-debug --disable-stripping --shlibdir=/usr/lib64 --enable-libmfx --enable-runtime-cpudetect
  libavutil      55. 78.100 / 55. 78.100
  libavcodec     57.107.100 / 57.107.100
  libavformat    57. 83.100 / 57. 83.100
  libavdevice    57. 10.100 / 57. 10.100
  libavfilter     6.107.100 /  6.107.100
  libavresample   3.  7.  0 /  3.  7.  0
  libswscale      4.  8.100 /  4.  8.100
  libswresample   2.  9.100 /  2.  9.100
  libpostproc    54.  7.100 / 54.  7.100
Input #0, mov,mp4,m4a,3gp,3g2,mj2, from '/var/www/vhosts/centx.app/httpdocs/files/conversion_queue/1613839314c46f3.mp4':
  Metadata:
    major_brand     : isom
    minor_version   : 512
    compatible_brands: isomiso2avc1mp41
    encoder         : Lavf58.64.100
  Duration: 00:01:56.03, start: 0.000000, bitrate: 192 kb/s
    Stream #0:0(eng): Video: h264 (Constrained Baseline) (avc1 / 0x31637661), yuv420p, 1278x718 [SAR 1:1 DAR 639:359], 191 kb/s, 30 fps, 30 tbr, 15360 tbn, 60 tbc (default)
    Metadata:
      handler_name    : VideoHandler
Codec AVOption b (set bitrate (in bits/s)) specified for output file #0 (/var/www/vhosts/centx.app/httpdocs/files/videos/2021/02/20//1613839314c46f3-sd.mp4) has not been used for any stream. The most likely reason is either wrong type (e.g. a video option with no video streams) or that it is a private option of some encoder which was not actually used for any stream.
Stream mapping:
  Stream #0:0 -> #0:0 (h264 (native) -> h264 (libx264))
Press [q] to stop, [?] for help
[libx264 @ 0xc16880] VBV maxrate specified, but no bufsize, ignored
[libx264 @ 0xc16880] using SAR=1/1
[libx264 @ 0xc16880] using cpu capabilities: MMX2 SSE2Fast SSSE3 SSE4.2 AVX FMA3 AVX2 LZCNT BMI2
[libx264 @ 0xc16880] profile High, level 3.1
[libx264 @ 0xc16880] 264 - core 148 r2795 aaa9aa8 - H.264/MPEG-4 AVC codec - Copyleft 2003-2017 - http://www.videolan.org/x264.html - options: cabac=1 ref=3 deblock=1:0:0 analyse=0x3:0x113 me=hex subme=7 psy=1 psy_rd=1.00:0.00 mixed_ref=1 me_range=16 chroma_me=1 trellis=1 8x8dct=1 cqm=0 deadzone=21,11 fast_pskip=1 chroma_qp_offset=-2 threads=3 lookahead_threads=1 sliced_threads=0 nr=0 decimate=1 interlaced=0 bluray_compat=0 constrained_intra=0 bframes=3 b_pyramid=2 b_adapt=1 b_bias=0 direct=1 weightb=1 open_gop=0 weightp=2 keyint=250 keyint_min=25 scenecut=40 intra_refresh=0 rc_lookahead=40 rc=crf mbtree=1 crf=23.0 qcomp=0.60 qpmin=0 qpmax=69 qpstep=4 ip_ratio=1.40 aq=1:1.00
Output #0, mp4, to '/var/www/vhosts/centx.app/httpdocs/files/videos/2021/02/20//1613839314c46f3-sd.mp4':
  Metadata:
    major_brand     : isom
    minor_version   : 512
    compatible_brands: isomiso2avc1mp41
    encoder         : Lavf57.83.100
    Stream #0:0(eng): Video: h264 (libx264) (avc1 / 0x31637661), yuv420p, 1278x718 [SAR 1:1 DAR 639:359], q=-1--1, 30 fps, 15360 tbn, 30 tbc (default)
    Metadata:
      handler_name    : VideoHandler
      encoder         : Lavc57.107.100 libx264
    Side data:
      cpb: bitrate max/min/avg: 128000/0/0 buffer size: 0 vbv_delay: -1
frame=   54 fps=0.0 q=29.0 size=       0kB time=00:00:00.13 bitrate=   2.9kbits/s speed=0.256x    frame=   92 fps= 89 q=29.0 size=       0kB time=00:00:01.40 bitrate=   0.3kbits/s speed=1.36x    frame=  146 fps= 95 q=29.0 size=       0kB time=00:00:03.20 bitrate=   0.1kbits/s speed=2.09x    frame=  190 fps= 93 q=29.0 size=       0kB time=00:00:04.66 bitrate=   0.1kbits/s speed=2.29x    frame=  235 fps= 92 q=29.0 size=       0kB time=00:00:06.16 bitrate=   0.1kbits/s speed=2.41x    frame=  284 fps= 92 q=29.0 size=       0kB time=00:00:07.80 bitrate=   0.0kbits/s speed=2.53x    frame=  335 fps= 93 q=29.0 size=       0kB time=00:00:09.50 bitrate=   0.0kbits/s speed=2.64x    frame=  381 fps= 93 q=29.0 size=       0kB time=00:00:11.03 bitrate=   0.0kbits/s speed=2.69x    frame=  433 fps= 94 q=29.0 size=       0kB time=00:00:12.76 bitrate=   0.0kbits/s speed=2.77x    frame=  486 fps= 95 q=29.0 size=       0kB time=00:00:14.53 bitrate=   0.0kbits/s speed=2.84x    frame=  545 fps= 97 q=29.0 size=       0kB time=00:00:16.50 bitrate=   0.0kbits/s speed=2.93x    frame=  601 fps= 98 q=29.0 size=       0kB time=00:00:18.36 bitrate=   0.0kbits/s speed=   3x    frame=  653 fps= 98 q=29.0 size=       0kB time=00:00:20.10 bitrate=   0.0kbits/s speed=3.03x    frame=  700 fps= 98 q=29.0 size=       0kB time=00:00:21.66 bitrate=   0.0kbits/s speed=3.03x    frame=  748 fps= 98 q=29.0 size=       0kB time=00:00:23.26 bitrate=   0.0kbits/s speed=3.04x    frame=  796 fps= 98 q=29.0 size=       0kB time=00:00:24.86 bitrate=   0.0kbits/s speed=3.05x    frame=  846 fps= 98 q=29.0 size=       0kB time=00:00:26.53 bitrate=   0.0kbits/s speed=3.06x    frame=  895 fps= 98 q=29.0 size=       0kB time=00:00:28.16 bitrate=   0.0kbits/s speed=3.07x    frame=  942 fps= 97 q=29.0 size=       0kB time=00:00:29.73 bitrate=   0.0kbits/s speed=3.07x    frame=  991 fps= 97 q=29.0 size=     256kB time=00:00:31.36 bitrate=  66.9kbits/s speed=3.08x    frame= 1035 fps= 97 q=29.0 size=     256kB time=00:00:32.83 bitrate=  63.9kbits/s speed=3.07x    frame= 1082 fps= 97 q=29.0 size=     256kB time=00:00:34.40 bitrate=  61.0kbits/s speed=3.07x    frame= 1126 fps= 96 q=29.0 size=     256kB time=00:00:35.86 bitrate=  58.5kbits/s speed=3.06x    frame= 1171 fps= 96 q=29.0 size=     256kB time=00:00:37.36 bitrate=  56.1kbits/s speed=3.06x    frame= 1218 fps= 96 q=29.0 size=     256kB time=00:00:38.93 bitrate=  53.9kbits/s speed=3.06x    frame= 1263 fps= 95 q=29.0 size=     256kB time=00:00:40.43 bitrate=  51.9kbits/s speed=3.05x    frame= 1312 fps= 95 q=29.0 size=     256kB time=00:00:42.06 bitrate=  49.9kbits/s speed=3.06x    frame= 1360 fps= 95 q=29.0 size=     256kB time=00:00:43.66 bitrate=  48.0kbits/s speed=3.07x    frame= 1408 fps= 96 q=29.0 size=     256kB time=00:00:45.26 bitrate=  46.3kbits/s speed=3.07x    frame= 1460 fps= 96 q=29.0 size=     256kB time=00:00:47.00 bitrate=  44.6kbits/s speed=3.08x    frame= 1501 fps= 95 q=29.0 size=     256kB time=00:00:48.36 bitrate=  43.4kbits/s speed=3.07x    frame= 1542 fps= 95 q=29.0 size=     256kB time=00:00:49.73 bitrate=  42.2kbits/s speed=3.06x    frame= 1582 fps= 94 q=29.0 size=     256kB time=00:00:51.06 bitrate=  41.1kbits/s speed=3.04x    frame= 1624 fps= 94 q=26.0 size=     256kB time=00:00:52.46 bitrate=  40.0kbits/s speed=3.03x    frame= 1669 fps= 94 q=29.0 size=     512kB time=00:00:53.96 bitrate=  77.7kbits/s speed=3.03x    frame= 1717 fps= 94 q=29.0 size=     512kB time=00:00:55.56 bitrate=  75.5kbits/s speed=3.04x    frame= 1765 fps= 94 q=29.0 size=     512kB time=00:00:57.16 bitrate=  73.4kbits/s speed=3.04x    frame= 1813 fps= 94 q=29.0 size=     512kB time=00:00:58.76 bitrate=  71.4kbits/s speed=3.04x    frame= 1860 fps= 94 q=29.0 size=     512kB time=00:01:00.33 bitrate=  69.5kbits/s speed=3.04x    frame= 1893 fps= 93 q=29.0 size=     512kB time=00:01:01.43 bitrate=  68.3kbits/s speed=3.02x    frame= 1933 fps= 93 q=29.0 size=     512kB time=00:01:02.76 bitrate=  66.8kbits/s speed=3.02x    frame= 1974 fps= 92 q=29.0 size=     512kB time=00:01:04.13 bitrate=  65.4kbits/s speed=3.01x    frame= 2015 fps= 92 q=29.0 size=     512kB time=00:01:05.50 bitrate=  64.0kbits/s speed=   3x    frame= 2055 fps= 92 q=29.0 size=     512kB time=00:01:06.83 bitrate=  62.8kbits/s speed=2.99x    frame= 2095 fps= 92 q=29.0 size=     512kB time=00:01:08.16 bitrate=  61.5kbits/s speed=2.98x    frame= 2134 fps= 91 q=29.0 size=     512kB time=00:01:09.46 bitrate=  60.4kbits/s speed=2.97x    frame= 2169 fps= 91 q=29.0 size=     512kB time=00:01:10.63 bitrate=  59.4kbits/s speed=2.95x    frame= 2213 fps= 91 q=29.0 size=     768kB time=00:01:12.10 bitrate=  87.3kbits/s speed=2.95x    frame= 2254 fps= 90 q=29.0 size=     768kB time=00:01:13.46 bitrate=  85.6kbits/s speed=2.95x    frame= 2297 fps= 90 q=29.0 size=     768kB time=00:01:14.90 bitrate=  84.0kbits/s speed=2.94x    frame= 2338 fps= 90 q=29.0 size=     768kB time=00:01:16.26 bitrate=  82.5kbits/s speed=2.94x    frame= 2377 fps= 90 q=29.0 size=     768kB time=00:01:17.56 bitrate=  81.1kbits/s speed=2.93x    frame= 2425 fps= 90 q=29.0 size=     768kB time=00:01:19.16 bitrate=  79.5kbits/s speed=2.94x    frame= 2471 fps= 90 q=29.0 size=     768kB time=00:01:20.70 bitrate=  78.0kbits/s speed=2.94x    frame= 2514 fps= 90 q=29.0 size=     768kB time=00:01:22.13 bitrate=  76.6kbits/s speed=2.93x    frame= 2558 fps= 90 q=29.0 size=     768kB time=00:01:23.60 bitrate=  75.3kbits/s speed=2.93x    frame= 2602 fps= 90 q=29.0 size=     768kB time=00:01:25.06 bitrate=  74.0kbits/s speed=2.93x    frame= 2646 fps= 90 q=29.0 size=     768kB time=00:01:26.53 bitrate=  72.7kbits/s speed=2.93x    frame= 2690 fps= 90 q=29.0 size=     768kB time=00:01:28.00 bitrate=  71.5kbits/s speed=2.93x    frame= 2731 fps= 89 q=29.0 size=     768kB time=00:01:29.36 bitrate=  70.4kbits/s speed=2.92x    frame= 2774 fps= 89 q=29.0 size=     768kB time=00:01:30.80 bitrate=  69.3kbits/s speed=2.92x    frame= 2819 fps= 89 q=29.0 size=     768kB time=00:01:32.30 bitrate=  68.2kbits/s speed=2.92x    frame= 2862 fps= 89 q=29.0 size=     768kB time=00:01:33.73 bitrate=  67.1kbits/s speed=2.92x    frame= 2907 fps= 89 q=29.0 size=     768kB time=00:01:35.23 bitrate=  66.1kbits/s speed=2.92x    frame= 2952 fps= 89 q=29.0 size=     768kB time=00:01:36.73 bitrate=  65.0kbits/s speed=2.92x    frame= 2997 fps= 89 q=26.0 size=    1024kB time=00:01:38.23 bitrate=  85.4kbits/s speed=2.92x    frame= 3047 fps= 89 q=29.0 size=    1024kB time=00:01:39.90 bitrate=  84.0kbits/s speed=2.93x    frame= 3099 fps= 89 q=29.0 size=    1024kB time=00:01:41.63 bitrate=  82.5kbits/s speed=2.93x    frame= 3152 fps= 90 q=29.0 size=    1024kB time=00:01:43.40 bitrate=  81.1kbits/s speed=2.94x    frame= 3202 fps= 90 q=29.0 size=    1024kB time=00:01:45.06 bitrate=  79.8kbits/s speed=2.95x    frame= 3246 fps= 90 q=29.0 size=    1024kB time=00:01:46.53 bitrate=  78.7kbits/s speed=2.95x    frame= 3288 fps= 90 q=29.0 size=    1024kB time=00:01:47.93 bitrate=  77.7kbits/s speed=2.94x    frame= 3330 fps= 90 q=29.0 size=    1024kB time=00:01:49.33 bitrate=  76.7kbits/s speed=2.94x    frame= 3370 fps= 89 q=29.0 size=    1024kB time=00:01:50.66 bitrate=  75.8kbits/s speed=2.94x    frame= 3410 fps= 89 q=29.0 size=    1024kB time=00:01:52.00 bitrate=  74.9kbits/s speed=2.93x    frame= 3451 fps= 89 q=29.0 size=    1024kB time=00:01:53.36 bitrate=  74.0kbits/s speed=2.93x    frame= 3481 fps= 88 q=-1.0 Lsize=    1267kB time=00:01:55.93 bitrate=  89.5kbits/s speed=2.93x    
video:1225kB audio:0kB subtitle:0kB other streams:0kB global headers:0kB muxing overhead: 3.369144%
[libx264 @ 0xc16880] frame I:20    Avg QP:11.84  size: 32672
[libx264 @ 0xc16880] frame P:917   Avg QP:13.64  size:   460
[libx264 @ 0xc16880] frame B:2544  Avg QP:15.31  size:    70
[libx264 @ 0xc16880] consecutive B-frames:  2.0%  1.3%  1.5% 95.3%
[libx264 @ 0xc16880] mb I  I16..4: 62.1% 22.2% 15.7%
[libx264 @ 0xc16880] mb P  I16..4:  0.2%  0.2%  0.1%  P16..4:  0.7%  0.0%  0.1%  0.0%  0.0%    skip:98.7%
[libx264 @ 0xc16880] mb B  I16..4:  0.0%  0.0%  0.0%  B16..8:  0.9%  0.0%  0.0%  direct: 0.0%  skip:99.0%  L0:65.3% L1:34.6% BI: 0.2%
[libx264 @ 0xc16880] 8x8 transform intra:24.4% inter:43.9%
[libx264 @ 0xc16880] coded y,uvDC,uvAC intra: 14.2% 14.2% 12.5% inter: 0.1% 0.1% 0.1%
[libx264 @ 0xc16880] i16 v,h,dc,p: 83% 13%  4%  0%
[libx264 @ 0xc16880] i8 v,h,dc,ddl,ddr,vr,hd,vl,hu: 44% 19% 35%  0%  0%  0%  0%  0%  1%
[libx264 @ 0xc16880] i4 v,h,dc,ddl,ddr,vr,hd,vl,hu: 36% 26% 15%  3%  4%  4%  5%  3%  4%
[libx264 @ 0xc16880] i8c dc,h,v,p: 85%  8%  6%  1%
[libx264 @ 0xc16880] Weighted P-Frames: Y:0.0% UV:0.0%
[libx264 @ 0xc16880] ref P L0: 88.0%  3.1%  7.3%  1.5%
[libx264 @ 0xc16880] ref B L0: 40.7% 58.6%  0.6%
[libx264 @ 0xc16880] ref B L1: 99.4%  0.6%
[libx264 @ 0xc16880] kb/s:86.46
 

 Sarting : MP4Box Conversion for SD 

 MP4Box Command : /usr/bin/MP4Box -inter 0.5 /var/www/vhosts/centx.app/httpdocs/files/videos/2021/02/20//1613839314c46f3-sd.mp4  -tmp /var/www/vhosts/centx.app/httpdocs/files/temp 

 output : Saving /var/www/vhosts/centx.app/httpdocs/files/videos/2021/02/20//1613839314c46f3-sd.mp4: 0.001 secs Interleaving
ISO File Writing: |                    | (01/100)ISO File Writing: |                    | (02/100)ISO File Writing: |                    | (03/100)ISO File Writing: |                    | (04/100)ISO File Writing: |=                   | (05/100)ISO File Writing: |=                   | (06/100)ISO File Writing: |=                   | (07/100)ISO File Writing: |=                   | (08/100)ISO File Writing: |=                   | (09/100)ISO File Writing: |==                  | (10/100)ISO File Writing: |==                  | (11/100)ISO File Writing: |==                  | (12/100)ISO File Writing: |==                  | (13/100)ISO File Writing: |==                  | (14/100)ISO File Writing: |===                 | (15/100)ISO File Writing: |===                 | (16/100)ISO File Writing: |===                 | (17/100)ISO File Writing: |===                 | (18/100)ISO File Writing: |===                 | (19/100)ISO File Writing: |====                | (20/100)ISO File Writing: |====                | (21/100)ISO File Writing: |====                | (22/100)ISO File Writing: |====                | (23/100)ISO File Writing: |====                | (24/100)ISO File Writing: |=====               | (25/100)ISO File Writing: |=====               | (26/100)ISO File Writing: |=====               | (27/100)ISO File Writing: |=====               | (28/100)ISO File Writing: |=====               | (29/100)ISO File Writing: |======              | (30/100)ISO File Writing: |======              | (31/100)ISO File Writing: |======              | (32/100)ISO File Writing: |======              | (33/100)ISO File Writing: |======              | (34/100)ISO File Writing: |=======             | (35/100)ISO File Writing: |=======             | (36/100)ISO File Writing: |=======             | (37/100)ISO File Writing: |=======             | (38/100)ISO File Writing: |=======             | (39/100)ISO File Writing: |========            | (40/100)ISO File Writing: |========            | (41/100)ISO File Writing: |========            | (42/100)ISO File Writing: |========            | (43/100)ISO File Writing: |========            | (44/100)ISO File Writing: |=========           | (45/100)ISO File Writing: |=========           | (46/100)ISO File Writing: |=========           | (47/100)ISO File Writing: |=========           | (48/100)ISO File Writing: |=========           | (49/100)ISO File Writing: |==========          | (50/100)ISO File Writing: |==========          | (51/100)ISO File Writing: |==========          | (52/100)ISO File Writing: |==========          | (53/100)ISO File Writing: |==========          | (54/100)ISO File Writing: |===========         | (55/100)ISO File Writing: |===========         | (56/100)ISO File Writing: |===========         | (57/100)ISO File Writing: |===========         | (58/100)ISO File Writing: |===========         | (59/100)ISO File Writing: |============        | (60/100)ISO File Writing: |============        | (61/100)ISO File Writing: |============        | (62/100)ISO File Writing: |============        | (63/100)ISO File Writing: |============        | (64/100)ISO File Writing: |=============       | (65/100)ISO File Writing: |=============       | (66/100)ISO File Writing: |=============       | (67/100)ISO File Writing: |=============       | (68/100)ISO File Writing: |=============       | (69/100)ISO File Writing: |==============      | (70/100)ISO File Writing: |==============      | (71/100)ISO File Writing: |==============      | (72/100)ISO File Writing: |==============      | (73/100)ISO File Writing: |==============      | (74/100)ISO File Writing: |===============     | (75/100)ISO File Writing: |===============     | (76/100)ISO File Writing: |===============     | (77/100)ISO File Writing: |===============     | (78/100)ISO File Writing: |===============     | (79/100)ISO File Writing: |================    | (80/100)ISO File Writing: |================    | (81/100)ISO File Writing: |================    | (82/100)ISO File Writing: |================    | (83/100)ISO File Writing: |================    | (84/100)ISO File Writing: |=================   | (85/100)ISO File Writing: |=================   | (86/100)ISO File Writing: |=================   | (87/100)ISO File Writing: |=================   | (88/100)ISO File Writing: |=================   | (89/100)ISO File Writing: |==================  | (90/100)ISO File Writing: |==================  | (91/100)ISO File Writing: |==================  | (92/100)ISO File Writing: |==================  | (93/100)ISO File Writing: |==================  | (94/100)ISO File Writing: |=================== | (95/100)ISO File Writing: |=================== | (96/100)ISO File Writing: |=================== | (97/100)ISO File Writing: |=================== | (98/100)ISO File Writing: |=================== | (99/100)ISO File Writing: |====================| (100/100)                                                         

 Conversion Status : Successful @ 2021-02-20 16:42:41 


OutPut Deatils
--------------
		<strong>format</strong> : mov,mp4,m4a,3gp,3g2,mj2
<strong>duration</strong> : 116.03
<strong>size</strong> : 1297544
<strong>bitrate</strong> : 89459
<strong>video_width</strong> : 1278
<strong>video_height</strong> : 718
<strong>video_wh_ratio</strong> : 1.7799442896936
<strong>video_codec</strong> : h264
<strong>video_rate</strong> : 30
<strong>video_bitrate</strong> : 86509
<strong>video_color</strong> : N/A
<strong>audio_codec</strong> : 
<strong>audio_bitrate</strong> : 0
<strong>audio_rate</strong> : 0
<strong>audio_channels</strong> : 0
<strong>path</strong> : /var/www/vhosts/centx.app/httpdocs/files/videos/2021/02/20//1613839314c46f3-sd.mp4
<strong>rotation</strong> : 0


Conversion Completed___ Output File/var/www/vhosts/centx.app/httpdocs/files/videos/2021/02/20//1613839314c46f3-sd.mp4
---------------------------------------------------------------------------------------------------------------------
		

Time Took : 42.4496 seconds

conversion_status : completed 
